HIERARCHY
ROOT Hips
{
	OFFSET 62.890800 8.863803 43.568401
	CHANNELS 6 Xposition Yposition Zposition Zrotation Xrotation Yrotation
	JOINT Chest
	{
		OFFSET -0.160400 1.630001 7.806301
		CHANNELS 6 Xposition Yposition Zposition Zrotation Xrotation Yrotation
		JOINT Chest2
		{
			OFFSET 0.000000 0.000000 3.197998
			CHANNELS 6 Xposition Yposition Zposition Zrotation Xrotation Yrotation
			JOINT Neck
			{
				OFFSET 0.000000 0.000001 7.440701
				CHANNELS 6 Xposition Yposition Zposition Zrotation Xrotation Yrotation
				JOINT Head
				{
					OFFSET 0.000000 0.000000 2.173901
					CHANNELS 6 Xposition Yposition Zposition Zrotation Xrotation Yrotation
					End Site
					{
						OFFSET 0.000000 0.000001 10.420303
					}
				}
			}
			JOINT LeftCollar
			{
				OFFSET 2.426399 -1.880099 4.759399
				CHANNELS 6 Xposition Yposition Zposition Zrotation Xrotation Yrotation
				JOINT LeftShoulder
				{
					OFFSET 4.420197 0.000000 0.000000
					CHANNELS 6 Xposition Yposition Zposition Zrotation Xrotation Yrotation
					JOINT LeftElbow
					{
						OFFSET 0.000000 -0.000001 -10.347099
						CHANNELS 6 Xposition Yposition Zposition Zrotation Xrotation Yrotation
						JOINT LeftWrist
						{
							OFFSET 0.000000 -0.000001 -12.496300
							CHANNELS 6 Xposition Yposition Zposition Zrotation Xrotation Yrotation
							End Site
							{
								OFFSET 0.000000 0.000000 -2.173901
							}
						}
					}
				}
			}
			JOINT RightCollar
			{
				OFFSET -2.781502 -1.903799 5.072601
				CHANNELS 6 Xposition Yposition Zposition Zrotation Xrotation Yrotation
				JOINT RightShoulder
				{
					OFFSET -4.012100 0.000000 0.000000
					CHANNELS 6 Xposition Yposition Zposition Zrotation Xrotation Yrotation
					JOINT RightElbow
					{
						OFFSET 0.000000 -0.000001 -10.346600
						CHANNELS 6 Xposition Yposition Zposition Zrotation Xrotation Yrotation
						JOINT RightWrist
						{
							OFFSET 0.000000 -0.000001 -12.562599
							CHANNELS 6 Xposition Yposition Zposition Zrotation Xrotation Yrotation
							End Site
							{
								OFFSET 0.000000 0.000000 -2.173901
							}
						}
					}
				}
			}
		}
	}
	JOINT LeftHip
	{
		OFFSET 2.047997 -0.047200 -2.693199
		CHANNELS 6 Xposition Yposition Zposition Zrotation Xrotation Yrotation
		JOINT LeftKnee
		{
			OFFSET 0.000000 -0.000001 -18.824400
			CHANNELS 6 Xposition Yposition Zposition Zrotation Xrotation Yrotation
			JOINT LeftAnkle
			{
				OFFSET 0.000000 -0.000002 -19.078199
				CHANNELS 6 Xposition Yposition Zposition Zrotation Xrotation Yrotation
				End Site
				{
					OFFSET 0.000000 -9.342100 0.000001
				}
			}
		}
	}
	JOINT RightHip
	{
		OFFSET -2.129898 -0.022300 -2.538300
		CHANNELS 6 Xposition Yposition Zposition Zrotation Xrotation Yrotation
		JOINT RightKnee
		{
			OFFSET 0.000000 -0.000001 -18.644600
			CHANNELS 6 Xposition Yposition Zposition Zrotation Xrotation Yrotation
			JOINT RightAnkle
			{
				OFFSET 0.000000 -0.000002 -18.801399
				CHANNELS 6 Xposition Yposition Zposition Zrotation Xrotation Yrotation
				End Site
				{
					OFFSET 0.000000 -8.914600 0.000001
				}
			}
		}
	}
}
MOTION
Frames: 7
Frame Time: 0.041667
82.794815 89.099091 37.817318 3252.197743 -12.478576 342.386045 -0.160388 1.629998 7.806310 -18.170796 17.710090 9.358786 0.000009 -0.000006 3.197994 9.208739 -8.575477 0.999614 -0.000001 -0.000004 7.440699 -31.571078 6.484819 21.927399 0.000004 -0.000002 2.173901 -0.668270 2.637616 0.980902 2.426403 -1.880108 4.759397 -172.231990 180.390296 -183.891505 4.420187 -0.000006 -0.000007 -27.418478 -2.208873 -102.700732 -0.000016 -0.000005 -10.347097 912.324377 -141.802814 -172.385300 -0.000008 0.000007 -12.496290 69.280419 -0.698337 2.866594 -2.781498 -1.903803 5.072593 -175.504620 -192.191483 177.485689 -4.012099 0.000003 -0.000009 0.497351 -6.819215 450.376062 -0.000006 0.000007 -10.346607 -207.107305 -104.710891 -223.666347 -0.000002 0.000000 -12.562585 879.403576 559.945137 -887.354408 2.048009 -0.047196 -2.693197 779.288193 -28.982456 14.427706 0.000001 0.000006 -18.824400 -419.863258 59.430521 26.848779 -0.000009 -0.000008 -19.078197 -390.817578 7.286094 9.852488 -2.129887 -0.022311 -2.538302 -887.347687 -14.814153 -61.301569 -0.000003 0.000000 -18.644585 384.296222 -195.344435 95.437420 -0.000008 -0.000004 -18.801407 124.843823 205.308574 127.842768
82.666008 89.177589 37.721828 3252.221566 -12.564052 342.042377 -0.160396 1.629992 7.806303 -17.385333 17.819339 9.350776 -0.000004 0.000007 3.197997 8.494814 -8.647229 0.943891 0.000011 0.000013 7.440699 -31.855941 6.577152 22.078375 -0.000007 -0.000005 2.173909 -0.820575 2.412359 1.164240 2.426401 -1.880090 4.759392 -172.244298 180.183669 -183.512648 4.420178 -0.000003 -0.000006 -26.832542 -2.220025 -103.498724 -0.000004 -0.000004 -10.347097 913.510699 -143.750210 -172.416856 -0.000002 0.000003 -12.496290 69.670942 -0.497408 1.750462 -2.781497 -1.903780 5.072597 -175.072802 -192.528484 177.362582 -4.012106 -0.000003 -0.000002 -0.022615 -6.941026 450.603234 0.000006 0.000003 -10.346601 -210.584704 -106.115185 -226.967842 -0.000011 0.000009 -12.562589 879.330848 559.806840 -887.352386 2.047997 -0.047208 -2.693193 779.071977 -28.930714 14.624002 0.000017 0.000010 -18.824396 -425.319595 58.181676 31.236125 -0.000010 -0.000001 -19.078197 -387.324400 7.203223 9.355310 -2.129894 -0.022312 -2.538292 -888.023220 -14.143006 -61.960280 -0.000010 0.000001 -18.644600 384.901377 -195.467569 95.034453 0.000006 -0.000010 -18.801403 125.299288 205.284587 128.502004
82.542305 89.253403 37.636120 3252.319265 -12.648820 341.747805 -0.160383 1.629990 7.806309 -17.566062 17.756984 9.488435 0.000014 0.000004 3.198005 8.697742 -8.701226 0.969123 -0.000010 0.000003 7.440702 -32.134934 6.663243 22.281781 -0.000013 -0.000008 2.173918 -0.962580 2.201233 1.286910 2.426394 -1.880107 4.759396 -171.140211 180.320710 -182.853986 4.420197 0.000000 0.000005 -27.423544 -1.666001 -104.360762 -0.000006 -0.000001 -10.347092 914.790786 -145.397160 -172.456239 -0.000001 0.000005 -12.496302 69.609053 -0.098902 2.446539 -2.781510 -1.903796 5.072602 -174.919123 -192.768525 177.248573 -4.012106 -0.000000 0.000001 -0.335611 -6.847848 450.829805 0.000001 -0.000007 -10.346598 -213.439491 -107.287143 -229.573040 0.000001 0.000003 -12.562593 879.209216 559.667722 -887.331295 2.048012 -0.047203 -2.693193 778.618233 -28.906020 14.688959 0.000008 -0.000001 -18.824400 -425.564690 58.051622 31.622359 -0.000007 -0.000003 -19.078199 -386.680505 7.371946 8.761750 -2.129883 -0.022305 -2.538299 -888.593568 -13.585021 -62.532301 -0.000002 0.000005 -18.644608 385.350749 -195.740791 94.626042 0.000012 -0.000001 -18.801397 125.803793 205.214673 129.197891
82.419006 89.326889 37.561417 3252.442318 -12.681254 341.485471 -0.160410 1.630013 7.806312 -17.734199 17.602951 9.593975 0.000005 0.000001 3.197996 8.879398 -8.759506 0.986028 -0.000005 0.000007 7.440704 -32.459842 6.748199 22.601777 -0.000007 -0.000010 2.173917 -1.015152 2.039805 1.282024 2.426410 -1.880098 4.759402 -171.096375 180.130257 -182.297940 4.420195 0.000001 -0.000004 -26.350074 0.779530 -105.198171 -0.000002 0.000007 -10.347094 918.154244 -146.696194 -172.521740 0.000005 -0.000010 -12.496311 70.238298 0.121509 1.702157 -2.781493 -1.903799 5.072609 -174.714682 -193.091087 177.130957 -4.012102 -0.000006 -0.000001 -0.645066 -6.830091 451.028017 0.000005 -0.000001 -10.346590 -215.989993 -108.420975 -231.933225 0.000003 -0.000004 -12.562605 879.097638 559.586689 -887.320694 2.047996 -0.047192 -2.693194 778.094112 -28.919574 14.702453 0.000016 0.000005 -18.824409 -425.362134 57.920626 31.718934 0.000006 -0.000010 -19.078199 -386.222800 7.476305 8.093271 -2.129914 -0.022292 -2.538289 -889.314180 -12.734131 -63.051423 -0.000010 -0.000002 -18.644581 386.147531 -195.490478 94.374247 0.000001 0.000000 -18.801395 125.763180 205.202638 129.494581
82.296814 89.391495 37.497719 3252.612362 -12.695273 341.305127 -0.160406 1.630008 7.806313 -17.905104 17.404838 9.596959 0.000007 -0.000004 3.197999 9.054442 -8.872143 1.002399 -0.000003 -0.000002 7.440701 -32.759121 6.909074 22.996777 -0.000008 -0.000006 2.173920 -1.101685 1.978865 1.224442 2.426402 -1.880113 4.759401 -171.005356 179.979473 -181.809964 4.420180 -0.000006 -0.000006 -25.858608 0.916769 -105.803223 -0.000001 0.000009 -10.347090 918.870704 -147.567671 -172.700063 -0.000000 0.000010 -12.496289 70.570218 0.491244 1.546598 -2.781497 -1.903812 5.072602 -174.555415 -193.398432 177.129727 -4.012093 0.000002 -0.000005 -0.934662 -6.715455 451.105117 -0.000003 0.000017 -10.346605 -218.482124 -109.537909 -234.272347 0.000006 0.000005 -12.562586 878.941964 559.506147 -887.313755 2.047994 -0.047200 -2.693194 777.344594 -29.002807 14.541063 -0.000001 0.000008 -18.824398 -424.739275 57.734988 31.609491 0.000005 0.000000 -19.078197 -385.999917 7.794345 7.673581 -2.129900 -0.022300 -2.538292 -889.939225 -11.902312 -63.447123 -0.000008 -0.000006 -18.644598 386.928140 -195.205154 94.132895 -0.000005 -0.000010 -18.801403 125.635633 205.205794 129.724512
82.177917 89.451393 37.444923 3252.893220 -12.679558 341.161857 -0.160404 1.629987 7.806316 -18.160095 17.149642 9.576645 0.000005 0.000000 3.197996 9.215574 -8.736587 1.012933 -0.000005 0.000005 7.440704 -32.929086 6.870543 23.209229 -0.000004 -0.000006 2.173901 -1.263675 2.027715 1.253635 2.426401 -1.880093 4.759395 -170.932273 180.049852 -181.239944 4.420199 -0.000001 0.000005 -25.375271 1.039100 -106.389274 -0.000002 -0.000011 -10.347099 914.741609 -147.833735 -175.652016 -0.000000 0.000011 -12.496298 74.918986 1.064455 1.645815 -2.781505 -1.903802 5.072600 -174.358009 -193.455341 177.096314 -4.012107 -0.000005 0.000006 -1.278599 -6.607405 451.194100 0.000006 -0.000006 -10.346596 -221.087855 -110.666058 -236.763754 0.000005 0.000005 -12.562578 878.878416 559.714550 -888.122230 2.047994 -0.047204 -2.693182 776.881398 -29.096947 14.548380 0.000016 0.000002 -18.824394 -423.998664 57.648620 31.268230 -0.000010 0.000002 -19.078196 -386.151001 7.763336 7.526131 -2.129894 -0.022309 -2.538285 -890.561209 -11.065134 -63.754591 0.000001 0.000012 -18.644592 387.646840 -195.099777 93.927928 0.000009 -0.000004 -18.801394 125.617629 205.178159 130.036557
82.059708 89.505692 37.402020 3253.096705 -12.715828 341.043885 -0.160394 1.629993 7.806297 -18.354098 16.976227 9.536034 0.000010 0.000004 3.198003 9.389043 -8.884735 1.030704 -0.000013 -0.000003 7.440702 -33.029804 7.102225 23.566372 -0.000010 0.000002 2.173901 -1.375960 2.068015 1.389748 2.426378 -1.880111 4.759403 -170.856199 179.877526 -180.864557 4.420172 -0.000003 0.000001 -24.941580 1.128346 -106.801250 -0.000003 0.000000 -10.347111 919.690545 -148.717493 -173.310818 0.000000 0.000001 -12.496292 71.595996 1.113248 1.491935 -2.781518 -1.903810 5.072603 -174.174181 -193.755391 177.065182 -4.012090 0.000005 -0.000007 -1.600738 -6.480264 451.247212 0.000002 -0.000007 -10.346598 -223.641171 -111.952975 -239.113475 0.000005 -0.000005 -12.562593 878.529694 559.517076 -888.024258 2.048004 -0.047201 -2.693194 776.595405 -29.160530 14.489944 0.000007 0.000009 -18.824394 -417.510257 58.967318 26.381435 0.000008 -0.000002 -19.078201 -389.740348 8.182581 7.300142 -2.129892 -0.022302 -2.538297 -890.964463 -10.449018 -63.911344 -0.000001 -0.000009 -18.644602 388.255820 -194.909229 93.770895 0.000013 -0.000005 -18.801405 125.399022 205.210588 130.136086
